<?xml version="1.0" encoding="utf-8"?>
<!-- Generator: Adobe Illustrator 17.1.0, SVG Export Plug-In . SVG Version: 6.00 Build 0)  -->
<!DOCTYPE svg PUBLIC "-//W3C//DTD SVG 1.1//EN" "http://www.w3.org/Graphics/SVG/1.1/DTD/svg11.dtd">
<svg version="1.1" id="Layer_1" xmlns="http://www.w3.org/2000/svg" xmlns:xlink="http://www.w3.org/1999/xlink" x="0px" y="0px"
	 viewBox="0 0 576 611.6" enable-background="new 0 0 576 611.6" xml:space="preserve">
<filter  height="130%" width="140%" filterUnits="objectBoundingBox" y="-15%" id="AI_Shadow_2" x="-15%">
	<feGaussianBlur  result="blur" in="SourceAlpha" stdDeviation="18"></feGaussianBlur>
	<feOffset  dy="8" result="offsetBlurredAlpha" dx="8" in="blur"></feOffset>
	<feComponentTransfer>
		<feFuncA  type="linear" slope="0.15"></feFuncA>
	</feComponentTransfer>
	<feMerge>
		<feMergeNode  in="offsetBlurredAlpha"></feMergeNode>
		<feMergeNode  in="SourceGraphic"></feMergeNode>
	</feMerge>
</filter>
<g filter="url(#AI_Shadow_2)">
	<path d="M490.6,139.9c0.1-1.5,4.6-61.2,40.7-78.5c1.1-2.1,0.5-10.5,2.8-16.9c2.2-6.4-4.4-10.4-4.4-10.4H281h0H32.4
		c0,0-6.7,4-4.4,10.4s1.7,14.8,2.8,16.9c36.1,17.3,40.6,76.9,40.7,78.5c0,0,0,0.3,0,0.7h419.1C490.6,140.1,490.6,139.9,490.6,139.9z
		"/>
	<path fill="#FFFFFF" d="M490.6,140.6H71.4c0.2,8.1,2.1,80.3,3.8,147h411.6C488.4,220.9,490.4,148.7,490.6,140.6z"/>
	<path d="M486.8,287.6H75.2c1.4,57.7,2.7,111.3,2.5,115.7c0.6,56.6,35.2,76.5,35.2,76.9c34,28.9,168.1,59.4,168.1,96.8
		c0-37.3,136-67.1,168.1-96.8c-0.3-0.2,34.6-20.3,35.2-76.9C484.1,398.9,485.3,345.3,486.8,287.6z"/>
</g>
<rect x="73.4" y="166.6" fill="none" width="414.6" height="80"/>
<g enable-background="new    ">
	<path d="M102.1,184.9c10,0,16.7,7.3,16.7,19.2c0,12.7-7.4,20.4-18.2,20.4c-10,0-16.7-7.2-16.7-19.1
		C83.9,192.8,91.3,184.9,102.1,184.9z M91.1,205.6c0,10.9,4,16.9,10.1,16.9c6.2,0,10.4-6.4,10.4-17.7c0-11.5-3.9-17.7-10.2-17.7
		C95,187.1,91.1,193.7,91.1,205.6z"/>
	<path d="M160.1,221.6v2.2c-4-0.2-7.8-0.4-11.4-0.4s-7.2,0.2-10.6,0.4v-2.2c6.1-0.4,6.5-0.8,6.5-5.4v-22.9c0-4.4-0.8-4.9-6.7-4.9
		v-2.2c4-0.2,8.2-0.6,12.9-1.3v10.7c2.9-7.1,6.5-10.7,10.8-10.7c3.4,0,5.7,2.5,5.7,5.9c0,2.5-1.3,4-3.2,4c-2,0-3.2-1.3-3.2-3.7
		c0-1,0.2-2.3,0.6-3.8c-0.1,0-0.2,0-0.3,0c-4.9,0-10.3,7.8-10.3,18.7v10.2C151,221.2,152.5,221.5,160.1,221.6z"/>
	<path d="M204.3,167.9v-2.2c4.2-0.2,8.5-0.6,13-1.3v51.8c0,3.9,0.6,4.7,5.1,4.9v2.2c-3.9,0.4-7.6,0.8-11.2,1.3v-4.9
		c-3.5,3.3-7.5,4.9-12.1,4.9c-9.5,0-15.5-6.9-15.5-18.8c0-13,7-20.8,17.2-20.8c3.9,0,7.1,1.3,10.3,4v-16.2
		C211,168.3,210.2,167.9,204.3,167.9z M210.9,192.4c-2.5-3.4-5.5-5-9.1-5c-7.3,0-11.5,6.1-11.5,17.8c0,11,3.6,16.4,11,16.4
		c3.9,0,6.9-1.6,9.5-5V192.4z"/>
	<path d="M260.7,221.6v2.2c-3.4-0.2-6.9-0.4-10.3-0.4c-3.6,0-7.1,0.2-10.7,0.4v-2.2c7.4-0.3,7.9-0.5,7.9-5.4v-22.9
		c0-4.3-0.8-4.9-6.5-4.9c-0.5,0-1,0-1.5,0v-2.2c4.6-0.2,9.4-0.6,14.3-1.3v31.3C254,221,254.2,221.5,260.7,221.6z M249.7,178.2
		c-2.1,0-3.4-1.3-3.4-3.4c0-2.1,2.4-4.3,4.6-4.3c2.3,0,3.6,1.2,3.6,3.4C254.4,175.9,252.2,178.2,249.7,178.2z"/>
	<path d="M321.9,221.6v2.2c-2.8-0.2-5.7-0.4-8.7-0.4c-3,0-5.9,0.2-9,0.4v-2.2c6.1-0.4,6.5-0.8,6.5-5.4v-17.9c0-7.1-2-10.6-7.2-10.6
		c-6.9,0-13,6.9-13,13.1v15.4c0,4.2,0.1,5,4.9,5.4v2.2c-2.8-0.2-5.7-0.4-8.7-0.4c-2.9,0-5.9,0.2-9,0.4v-2.2c6.1-0.4,6.5-0.8,6.5-5.4
		v-22.9c0-4.4-0.8-4.9-6.7-4.9v-2.2c4-0.2,8.2-0.6,12.9-1.3v9.1c3.6-6.1,8.5-9.1,14.6-9.1c9.2,0,12.2,4.4,12.2,14.3v17
		C317.1,220.5,317.1,221.2,321.9,221.6z"/>
	<path d="M351,224.6c-5.7,0-9.1-3.3-9.1-8.7c0-5.1,2.5-8.1,8.1-9.8c2.7-0.8,7.4-1.8,14.1-3.4l0.1-3.9c0-0.4,0-0.9,0-1.3
		c0-7-1.4-10.2-6.8-10.2c-3,0-5.5,0.8-7.8,2.6c0.2,1.4,0.3,2.6,0.3,3.4c0,3-1.6,4.8-3.6,4.8c-1.5,0-2.3-1.1-2.3-3
		c0-4.8,6.1-10.2,14.1-10.2c9.1,0,12.5,4.2,12.5,13.1c0,0.3,0,0.6,0,1l-0.3,12.7c0,1.2-0.1,2.3-0.1,3.3c0,3.8,0.5,5.4,3.4,5.4
		c1.6,0,2.8-0.7,3.7-2.3l1.4,0.8c-1.9,3.8-4.6,5.7-8.4,5.7c-3.9,0-6.2-2.2-6.5-6.1C359.6,222.6,355.7,224.6,351,224.6z M348.1,214.6
		c0,3.9,2.3,6.5,6.1,6.5c3.8,0,6.9-2,9.6-6.2l0.2-10C352.7,207.3,348.1,208.5,348.1,214.6z"/>
	<path d="M417,221.6v2.2c-4-0.2-7.8-0.4-11.4-0.4s-7.2,0.2-10.6,0.4v-2.2c6.1-0.4,6.5-0.8,6.5-5.4v-22.9c0-4.4-0.8-4.9-6.7-4.9v-2.2
		c4-0.2,8.2-0.6,12.9-1.3v10.7c2.9-7.1,6.5-10.7,10.8-10.7c3.4,0,5.7,2.5,5.7,5.9c0,2.5-1.3,4-3.2,4c-2,0-3.2-1.3-3.2-3.7
		c0-1,0.2-2.3,0.6-3.8c-0.1,0-0.2,0-0.3,0c-4.9,0-10.3,7.8-10.3,18.7v10.2C407.9,221.2,409.4,221.5,417,221.6z"/>
	<path d="M445.2,193.5c-1.3-3-2-5-6.1-5.6v-2.2c2.8,0.2,5.4,0.3,8.2,0.3s5.5-0.1,8.2-0.3v2.2c-0.2,0-0.2,0-0.4,0c-2.6,0-4,0.8-4,1.8
		c0,1.5,0.6,2.6,1,3.7l8.4,21.3c4.9-13.8,7.8-21.6,7.8-24.1c0-1.8-1.7-2.6-5.3-2.7v-2.2c2.3,0.2,4.4,0.3,6.5,0.3
		c2.2,0,4.3-0.1,6.4-0.3v2.2c-2.7,0-4,1.4-5.1,4.4l-12.5,35.1c-3.4,9.7-6,14.3-11.6,14.3c-2.6,0-4.3-1.3-4.3-3.1s1.2-3,3.2-3
		c1.6,0,3.3,0.8,5,2.5c2-1.4,4.3-6.3,6.8-14.9L445.2,193.5z"/>
</g>
<rect x="75.1" y="250.6" fill="none" width="412.9" height="34"/>
<g enable-background="new    ">
	<path d="M233.1,261.9c0,1.7,0.1,2.2,1.6,2.2c0.1,0,0.2,0,0.3,0v0.6c-0.7-0.1-1.5-0.1-2.2-0.1c-0.7,0-1.5,0-2.2,0.1v-0.6
		c0,0,0.1,0,0.1,0c1.6,0,1.7-0.4,1.7-2.2v-9.1c0-1.3-0.2-1.6-1.6-1.6c-0.1,0-0.2,0-0.4,0v-0.7c0.7,0.1,1.3,0.1,2,0.1
		c0.7,0,1.3,0,1.9-0.1l8.1,10.7v-7.9c0-1.7-0.1-2.2-1.6-2.2c-0.1,0-0.2,0-0.3,0v-0.7c0.8,0.1,1.5,0.1,2.2,0.1c0.7,0,1.4,0,2.1-0.1
		v0.7c-1.6,0-1.7,0.5-1.7,2.2v11.4h-0.5l-9.6-12.8V261.9z"/>
	<path d="M248.1,260.1c0,2.6,1.1,3.9,3.1,3.9c1.4,0,2.5-0.7,3-2.1l0.4,0.2c-0.6,1.9-2,2.9-4.1,2.9c-2.7,0-4.2-1.8-4.2-4.8
		c0-3.2,1.8-5.1,4.5-5.1c2.4,0,3.8,1.5,3.8,4c0,0.1,0,0.3,0,0.4l-6.5,0.2C248.1,259.8,248.1,259.9,248.1,260.1z M253.1,258.9
		c0-0.1,0-0.1,0-0.2c0-2.1-0.8-3.1-2.3-3.1c-1.7,0-2.7,1.2-2.8,3.5L253.1,258.9z"/>
	<path d="M265.3,255.9c-0.7,0.1-0.9,0.1-0.9,0.5c0,0.2,0,0.5,0.1,0.6l1.7,5.7l2-5.7c0.1-0.3,0.1-0.5,0.1-0.6c0-0.4-0.3-0.4-1-0.5
		v-0.6c0.5,0.1,0.9,0.1,1.4,0.1c0.5,0,0.9,0,1.4-0.1v0.6c0,0,0,0-0.1,0c-0.7,0-0.9,0.3-1.2,1l-3,8h-0.5l-2.4-7.7l-2.9,7.7h-0.5
		l-2.7-8.2c-0.2-0.6-0.4-0.9-1-0.9c-0.1,0-0.1,0-0.2,0v-0.6c0.7,0.1,1.3,0.1,2,0.1c0.7,0,1.3,0,2-0.1v0.6c-0.8,0-1.1,0.1-1.1,0.6
		c0,0.2,0,0.3,0.1,0.5l1.9,5.6l2-5.6c0.1-0.3,0.1-0.5,0.1-0.6c0-0.4-0.3-0.4-1-0.5v-0.6c0.6,0.1,1.2,0.1,1.9,0.1
		c0.6,0,1.3,0,1.9-0.1V255.9z"/>
	<path d="M287.2,256.9v-4.1c0-1.3-0.1-1.6-1.5-1.6c0,0-0.1,0-0.1,0v-0.7c0.8,0.1,1.7,0.1,2.5,0.1c0.8,0,1.7,0,2.6-0.1v0.7
		c0,0-0.1,0-0.1,0c-1.3,0-1.5,0.3-1.5,1.6v9.7c0,1.3,0.1,1.6,1.5,1.6c0,0,0.1,0,0.1,0v0.6c-0.8-0.1-1.7-0.1-2.5-0.1
		c-0.8,0-1.7,0-2.6,0.1v-0.6c0,0,0.1,0,0.1,0c1.3,0,1.5-0.3,1.5-1.6v-5h-7.1v5c0,1.3,0.1,1.6,1.5,1.6c0,0,0.1,0,0.1,0v0.6
		c-0.8-0.1-1.7-0.1-2.5-0.1c-0.9,0-1.7,0-2.6,0.1v-0.6c0,0,0.1,0,0.1,0c1.3,0,1.5-0.3,1.5-1.6v-9.7c0-1.3-0.1-1.6-1.5-1.6
		c0,0-0.1,0-0.1,0v-0.7c0.8,0.1,1.7,0.1,2.5,0.1c0.8,0,1.7,0,2.6-0.1v0.7c0,0-0.1,0-0.1,0c-1.3,0-1.5,0.3-1.5,1.6v4.1H287.2z"/>
	<path d="M294.7,264.9c-1.4,0-2.2-0.8-2.2-2.2c0-1.3,0.6-2,2-2.4c0.7-0.2,1.8-0.5,3.5-0.8l0-1c0-0.1,0-0.2,0-0.3
		c0-1.7-0.3-2.5-1.7-2.5c-0.7,0-1.4,0.2-1.9,0.7c0,0.4,0.1,0.6,0.1,0.8c0,0.8-0.4,1.2-0.9,1.2c-0.4,0-0.6-0.3-0.6-0.7
		c0-1.2,1.5-2.5,3.5-2.5c2.2,0,3.1,1,3.1,3.2c0,0.1,0,0.2,0,0.2l-0.1,3.1c0,0.3,0,0.6,0,0.8c0,0.9,0.1,1.3,0.8,1.3
		c0.4,0,0.7-0.2,0.9-0.6l0.3,0.2c-0.5,0.9-1.1,1.4-2.1,1.4c-1,0-1.5-0.5-1.6-1.5C296.8,264.4,295.8,264.9,294.7,264.9z M294,262.5
		c0,1,0.6,1.6,1.5,1.6c0.9,0,1.7-0.5,2.4-1.5l0.1-2.5C295.1,260.7,294,261,294,262.5z"/>
	<path d="M302.8,256.8c-0.2-0.6-0.3-0.9-1.1-0.9c0,0-0.1,0-0.1,0v-0.6c0.7,0.1,1.4,0.1,2.1,0.1c0.7,0,1.4,0,2.1-0.1v0.6
		c-0.9,0.1-1.2,0.1-1.2,0.5c0,0.2,0,0.4,0.1,0.6l2.2,5.9l2.3-5.9c0.1-0.2,0.1-0.5,0.1-0.6c0-0.4-0.3-0.4-1.2-0.5v-0.6
		c0.5,0.1,1,0.1,1.5,0.1s1,0,1.5-0.1v0.6c0,0,0,0-0.1,0c-0.8,0-0.9,0.3-1.2,1l-3.3,8h-0.5L302.8,256.8z"/>
	<path d="M313.7,260.1c0,2.6,1.1,3.9,3.1,3.9c1.4,0,2.5-0.7,3-2.1l0.4,0.2c-0.6,1.9-2,2.9-4.1,2.9c-2.7,0-4.2-1.8-4.2-4.8
		c0-3.2,1.8-5.1,4.5-5.1c2.4,0,3.8,1.5,3.8,4c0,0.1,0,0.3,0,0.4l-6.5,0.2C313.7,259.8,313.7,259.9,313.7,260.1z M318.7,258.9
		c0-0.1,0-0.1,0-0.2c0-2.1-0.8-3.1-2.3-3.1c-1.7,0-2.7,1.2-2.8,3.5L318.7,258.9z"/>
	<path d="M332.4,264.2v0.6c-0.7-0.1-1.4-0.1-2.1-0.1c-0.7,0-1.5,0-2.2,0.1v-0.6c1.5-0.1,1.6-0.2,1.6-1.3v-4.4c0-1.8-0.5-2.6-1.8-2.6
		c-1.7,0-3.2,1.7-3.2,3.2v3.8c0,1,0,1.2,1.2,1.3v0.6c-0.7-0.1-1.4-0.1-2.2-0.1c-0.7,0-1.5,0-2.2,0.1v-0.6c1.5-0.1,1.6-0.2,1.6-1.3
		v-5.7c0-1.1-0.2-1.2-1.7-1.2v-0.6c1-0.1,2-0.2,3.2-0.3v2.3c0.9-1.5,2.1-2.3,3.6-2.3c2.3,0,3,1.1,3,3.5v4.2
		C331.3,263.9,331.3,264.1,332.4,264.2z"/>
</g>
</svg>
